<svg width="100" height="80" viewBox="0 0 100 80" fill="none" xmlns="http://www.w3.org/2000/svg">
<mask id="path-1-inside-1_411_1305" fill="white">
<path fill-rule="evenodd" clip-rule="evenodd" d="M44.5 63.3559C69.0767 63.3559 89 49.1732 89 31.678C89 14.1827 69.0767 0 44.5 0C19.9233 0 0 14.1827 0 31.678C0 42.7994 8.05087 52.5823 20.2301 58.2343C19.4317 62.3302 17.8482 68.7318 13.5763 70.3529C17.5989 70.1015 26.7 68.241 30.9237 62.8105C31.1502 62.5193 31.3372 62.2427 31.4875 61.9801C35.6035 62.8747 39.9728 63.3559 44.5 63.3559Z"/>
</mask>
<path fill-rule="evenodd" clip-rule="evenodd" d="M44.5 63.3559C69.0767 63.3559 89 49.1732 89 31.678C89 14.1827 69.0767 0 44.5 0C19.9233 0 0 14.1827 0 31.678C0 42.7994 8.05087 52.5823 20.2301 58.2343C19.4317 62.3302 17.8482 68.7318 13.5763 70.3529C17.5989 70.1015 26.7 68.241 30.9237 62.8105C31.1502 62.5193 31.3372 62.2427 31.4875 61.9801C35.6035 62.8747 39.9728 63.3559 44.5 63.3559Z" fill="#EDFBF8"/>
<path d="M20.2301 58.2343L21.2117 58.4256L21.3615 57.6569L20.6511 57.3272L20.2301 58.2343ZM13.5763 70.3529L13.2215 69.4179L13.6386 71.3509L13.5763 70.3529ZM30.9237 62.8105L31.7131 63.4244L31.7131 63.4244L30.9237 62.8105ZM31.4875 61.9801L31.6999 61.0029L30.9837 60.8473L30.6196 61.4834L31.4875 61.9801ZM88 31.678C88 40.0173 83.2533 47.6628 75.3863 53.263C67.5215 58.8617 56.6047 62.3559 44.5 62.3559V64.3559C56.972 64.3559 68.3052 60.7588 76.5462 54.8923C84.7851 49.0274 90 40.8339 90 31.678H88ZM44.5 1C56.6047 1 67.5215 4.49422 75.3863 10.0929C83.2533 15.6931 88 23.3386 88 31.678H90C90 22.522 84.7851 14.3286 76.5462 8.4636C68.3052 2.59713 56.972 -1 44.5 -1V1ZM1 31.678C1 23.3386 5.74672 15.6931 13.6137 10.0929C21.4785 4.49422 32.3953 1 44.5 1V-1C32.028 -1 20.6948 2.59713 12.4538 8.4636C4.21495 14.3286 -1 22.522 -1 31.678H1ZM20.6511 57.3272C8.68168 51.7726 1 42.2737 1 31.678H-1C-1 43.3251 7.42007 53.392 19.8092 59.1414L20.6511 57.3272ZM13.9311 71.2878C16.4416 70.3351 18.0519 68.0283 19.1194 65.6281C20.1975 63.2042 20.8099 60.4867 21.2117 58.4256L19.2486 58.0429C18.8519 60.0778 18.2733 62.6091 17.292 64.8153C16.3003 67.0451 14.9828 68.7496 13.2215 69.4179L13.9311 71.2878ZM30.1344 62.1966C28.1907 64.6956 25.0652 66.4349 21.8396 67.5816C18.629 68.7231 15.4406 69.2344 13.5139 69.3548L13.6386 71.3509C15.7346 71.2199 19.1081 70.6754 22.5096 69.4661C25.8961 68.2621 29.433 66.356 31.7131 63.4244L30.1344 62.1966ZM30.6196 61.4834C30.4962 61.699 30.3367 61.9365 30.1344 62.1966L31.7131 63.4244C31.9637 63.1022 32.1782 62.7865 32.3554 62.4768L30.6196 61.4834ZM44.5 62.3559C40.0434 62.3559 35.7453 61.8822 31.6999 61.0029L31.2751 62.9573C35.4616 63.8672 39.9022 64.3559 44.5 64.3559V62.3559Z" fill="#EDFBF8" mask="url(#path-1-inside-1_411_1305)"/>
<path d="M88.5 38.5C103.5 29 94 20 86.5 19C86.5 19 89.0961 24.6305 89.5 28.5C89.9074 32.4035 88.5 38.5 88.5 38.5Z" fill="#97BFE7" stroke="#97BFE7" stroke-width="6"/>
<path d="M92.4324 36C92.4324 48.9557 94.4279 60.7409 90.9357 68.613C86.9446 75.9228 74.2742 73.6736 62 73.6736" stroke="#97BFE7" stroke-width="3" stroke-linecap="round" stroke-linejoin="round"/>
<path d="M62 73C62 76.866 58.866 80 55 80C51.134 80 48 76.866 48 73C48 69.134 51.134 66 55 66C58.866 66 62 69.134 62 73Z" fill="#97BFE7"/>
<path d="M76 28.4999C73.3333 24.9999 66.2 20.0999 59 28.4999" stroke="#001A3F"/>
<path d="M30 28.6381C27.3333 25.1381 20.2 20.2381 13 28.6381" stroke="#001A3F"/>
<path d="M52 46.5H37C37 48.8333 38.5 53.5 44.5 53.5C50.5 53.5 52 48.8333 52 46.5Z" stroke="#001A3F"/>
</svg>
