<svg width="43" height="43" viewBox="0 0 43 43" fill="none" xmlns="http://www.w3.org/2000/svg">
<circle cx="21.5" cy="21.5" r="21.5" fill="#B8CFFF"/>
<path d="M25.141 12.6674C21.8017 9.53773 16.3863 9.53773 13.047 12.6674C9.70772 15.797 9.70772 20.8724 13.047 24.0021C16.0052 26.7745 20.5931 27.0875 23.9215 24.9478L28.0847 29.3122C28.7925 30.0572 30.0229 30.0878 30.7742 29.3837L30.8831 29.2816C31.6345 28.5775 31.6018 27.4243 30.8069 26.7609L26.1501 22.8591C28.4368 19.7362 28.0992 15.4398 25.141 12.6674ZM23.0649 22.0563C20.8725 24.1109 17.3155 24.1109 15.1232 22.0563C12.9309 20.0016 12.9309 16.6678 15.1232 14.6132C17.3155 12.5585 20.8725 12.5585 23.0649 14.6132C25.2608 16.6712 25.2572 20.0016 23.0649 22.0563Z" fill="#FEFDFE"/>
</svg>
