<svg width="75" height="57" viewBox="0 0 75 57" fill="none" xmlns="http://www.w3.org/2000/svg">
<mask id="path-1-inside-1_407_1288" fill="white">
<path fill-rule="evenodd" clip-rule="evenodd" d="M32.5 44C48.7924 44 62 34.598 62 23C62 18.6267 59.918 14.5656 56.6968 11.2031C67.362 14.0924 75 21.8651 75 31C75 38.3726 70.0247 44.8579 62.4982 48.6047C62.9917 51.3201 63.9702 55.5638 66.6102 56.6384C64.1243 56.4718 58.5 55.2384 55.8898 51.6384C55.7499 51.4454 55.6343 51.262 55.5414 51.0879C52.9979 51.681 50.2977 52 47.5 52C38.3654 52 30.271 48.599 25.2698 43.3647C27.5834 43.7796 30.0055 44 32.5 44ZM24.9299 43.0009C25.0416 43.1231 25.1549 43.2444 25.2698 43.3647C25.2301 43.3575 25.1904 43.3503 25.1507 43.3431C25.0809 43.2281 25.0073 43.1141 24.9299 43.0009ZM23.7669 41.6152C21.7695 39.6057 18.6692 37.8283 15.468 35.9931C9.41441 32.5226 3 28.8452 3 23C3 11.402 16.2076 2 32.5 2C37.8743 2 41.0178 3.86819 44.5825 5.98667C47.667 7.81977 51.0667 9.84027 56.5 11C56.566 11.0674 56.6316 11.1351 56.6968 11.2031C53.8211 10.424 50.7254 10 47.5 10C32.3122 10 20 19.402 20 31C20 34.8727 21.3727 38.5005 23.7669 41.6152ZM24.9299 43.0009C24.6048 42.5252 24.2134 42.0644 23.7669 41.6152C24.1313 42.0893 24.5194 42.5515 24.9299 43.0009Z"/>
</mask>
<path fill-rule="evenodd" clip-rule="evenodd" d="M32.5 44C48.7924 44 62 34.598 62 23C62 18.6267 59.918 14.5656 56.6968 11.2031C67.362 14.0924 75 21.8651 75 31C75 38.3726 70.0247 44.8579 62.4982 48.6047C62.9917 51.3201 63.9702 55.5638 66.6102 56.6384C64.1243 56.4718 58.5 55.2384 55.8898 51.6384C55.7499 51.4454 55.6343 51.262 55.5414 51.0879C52.9979 51.681 50.2977 52 47.5 52C38.3654 52 30.271 48.599 25.2698 43.3647C27.5834 43.7796 30.0055 44 32.5 44ZM24.9299 43.0009C25.0416 43.1231 25.1549 43.2444 25.2698 43.3647C25.2301 43.3575 25.1904 43.3503 25.1507 43.3431C25.0809 43.2281 25.0073 43.1141 24.9299 43.0009ZM23.7669 41.6152C21.7695 39.6057 18.6692 37.8283 15.468 35.9931C9.41441 32.5226 3 28.8452 3 23C3 11.402 16.2076 2 32.5 2C37.8743 2 41.0178 3.86819 44.5825 5.98667C47.667 7.81977 51.0667 9.84027 56.5 11C56.566 11.0674 56.6316 11.1351 56.6968 11.2031C53.8211 10.424 50.7254 10 47.5 10C32.3122 10 20 19.402 20 31C20 34.8727 21.3727 38.5005 23.7669 41.6152ZM24.9299 43.0009C24.6048 42.5252 24.2134 42.0644 23.7669 41.6152C24.1313 42.0893 24.5194 42.5515 24.9299 43.0009Z" fill="#001A3F"/>
<path d="M62.4982 48.6047L62.0526 47.7095L61.38 48.0444L61.5143 48.7835L62.4982 48.6047ZM66.6102 56.6384L66.5433 57.6362L66.9872 55.7122L66.6102 56.6384ZM55.8898 51.6384L56.6994 51.0514L56.6994 51.0514L55.8898 51.6384ZM55.5414 51.0879L56.4237 50.6172L56.0622 49.9397L55.3144 50.1141L55.5414 51.0879ZM25.1507 43.3431L24.2956 43.8617L24.5288 44.2461L24.9711 44.3269L25.1507 43.3431ZM15.468 35.9931L15.9653 35.1255L15.9653 35.1255L15.468 35.9931ZM44.5825 5.98667L45.0934 5.12702L45.0934 5.12702L44.5825 5.98667ZM56.5 11L57.2143 10.3001L57.0034 10.0849L56.7087 10.022L56.5 11ZM61 23C61 28.3907 57.9322 33.3667 52.7797 37.0346C47.6293 40.7009 40.4626 43 32.5 43V45C40.8298 45 48.4131 42.598 53.9396 38.6639C59.464 34.7313 63 29.2073 63 23H61ZM55.9746 11.8949C59.0747 15.1308 61 18.9566 61 23H63C63 18.2967 60.7613 14.0003 57.4189 10.5113L55.9746 11.8949ZM76 31C76 21.2541 67.8836 13.1977 56.9582 10.2379L56.4353 12.1683C66.8404 14.9871 74 22.476 74 31H76ZM62.9439 49.5C70.7013 45.6382 76 38.8599 76 31H74C74 37.8854 69.3482 44.0777 62.0526 47.7095L62.9439 49.5ZM66.9872 55.7122C66.0485 55.3301 65.2802 54.3183 64.673 52.8538C64.0799 51.4233 63.7267 49.7719 63.4821 48.426L61.5143 48.7835C61.7632 50.1529 62.146 51.9811 62.8255 53.6198C63.4909 55.2247 64.5319 56.8721 66.2331 57.5646L66.9872 55.7122ZM55.0802 52.2254C56.5461 54.2472 58.8079 55.547 60.9403 56.3603C63.0835 57.1776 65.2094 57.5468 66.5433 57.6362L66.6771 55.6407C65.5251 55.5634 63.5959 55.2326 61.6529 54.4916C59.6992 53.7465 57.8437 52.6296 56.6994 51.0514L55.0802 52.2254ZM54.6591 51.5587C54.7766 51.7789 54.9175 52.001 55.0802 52.2254L56.6994 51.0514C56.5822 50.8898 56.492 50.7452 56.4237 50.6172L54.6591 51.5587ZM47.5 53C50.3736 53 53.1499 52.6723 55.7685 52.0618L55.3144 50.1141C52.8458 50.6896 50.2218 51 47.5 51V53ZM24.5468 44.0555C29.7621 49.5139 38.1315 53 47.5 53V51C38.5993 51 30.7799 47.684 25.9929 42.6738L24.5468 44.0555ZM32.5 43C30.0643 43 27.7012 42.7848 25.4464 42.3804L25.0933 44.349C27.4655 44.7744 29.9467 45 32.5 45V43ZM24.1916 43.6753C24.3083 43.8031 24.4267 43.9298 24.5468 44.0555L25.9929 42.6738C25.883 42.5589 25.7748 42.4431 25.6682 42.3264L24.1916 43.6753ZM25.4464 42.3804C25.4077 42.3734 25.3689 42.3664 25.3302 42.3594L24.9711 44.3269C25.0118 44.3343 25.0525 44.3416 25.0933 44.349L25.4464 42.3804ZM26.0057 42.8245C25.9262 42.6934 25.8427 42.5642 25.7555 42.4366L24.1043 43.5651C24.1719 43.664 24.2357 43.7629 24.2956 43.8617L26.0057 42.8245ZM24.4762 40.9102C22.3629 38.7842 19.1255 36.9372 15.9653 35.1255L14.9706 36.8606C18.2129 38.7194 21.1761 40.4272 23.0577 42.3202L24.4762 40.9102ZM15.9653 35.1255C12.9154 33.377 9.8949 31.6408 7.62573 29.6374C5.36641 27.6428 4 25.5125 4 23H2C2 26.3328 3.8408 28.9638 6.30207 31.1367C8.7535 33.301 11.9669 35.1386 14.9706 36.8606L15.9653 35.1255ZM4 23C4 17.6093 7.06779 12.6333 12.2203 8.96542C17.3707 5.29905 24.5374 3 32.5 3V1C24.1702 1 16.5869 3.40196 11.0604 7.33609C5.53601 11.2687 2 16.7927 2 23H4ZM32.5 3C37.5825 3 40.5229 4.7373 44.0716 6.84632L45.0934 5.12702C41.5128 2.99908 38.1662 1 32.5 1V3ZM44.0716 6.84632C47.1717 8.68869 50.6891 10.7822 56.2913 11.978L56.7087 10.022C51.4444 8.89836 48.1622 6.95086 45.0934 5.12702L44.0716 6.84632ZM55.7857 11.6999C55.8492 11.7646 55.9121 11.8296 55.9747 11.8949L57.4189 10.5113C57.3511 10.4406 57.2829 10.3702 57.2143 10.3001L55.7857 11.6999ZM56.9582 10.2379C53.9965 9.43549 50.8128 9 47.5 9V11C50.638 11 53.6458 11.4126 56.4353 12.1683L56.9582 10.2379ZM47.5 9C39.7064 9 32.6135 11.4112 27.4476 15.356C22.2809 19.3015 19 24.8234 19 31H21C21 25.5786 23.8751 20.6005 28.6615 16.9455C33.4487 13.2898 40.1058 11 47.5 11V9ZM19 31C19 35.1186 20.462 38.9565 22.9741 42.2246L24.5598 41.0058C22.2835 38.0444 21 34.6267 21 31H19ZM25.7555 42.4366C25.3897 41.9014 24.957 41.394 24.4762 40.9102L23.0577 42.3202C23.4699 42.7348 23.82 43.1491 24.1043 43.5651L25.7555 42.4366ZM22.9741 42.2246C23.3562 42.7217 23.7625 43.2056 24.1916 43.6753L25.6682 42.3264C25.2763 41.8974 24.9065 41.4569 24.5598 41.0058L22.9741 42.2246Z" fill="#001A3F" mask="url(#path-1-inside-1_407_1288)"/>
<mask id="path-3-inside-2_407_1288" fill="white">
<path fill-rule="evenodd" clip-rule="evenodd" d="M29.5 42C45.7924 42 59 32.598 59 21C59 9.40202 45.7924 0 29.5 0C13.2076 0 0 9.40202 0 21C0 28.3726 5.33709 34.8579 13.411 38.6047C12.8817 41.3201 11.8319 45.5638 9 46.6384C11.6667 46.4718 17.7 45.2384 20.5 41.6384C20.6501 41.4454 20.7741 41.262 20.8737 41.0879C23.6023 41.681 26.4988 42 29.5 42Z"/>
</mask>
<path fill-rule="evenodd" clip-rule="evenodd" d="M29.5 42C45.7924 42 59 32.598 59 21C59 9.40202 45.7924 0 29.5 0C13.2076 0 0 9.40202 0 21C0 28.3726 5.33709 34.8579 13.411 38.6047C12.8817 41.3201 11.8319 45.5638 9 46.6384C11.6667 46.4718 17.7 45.2384 20.5 41.6384C20.6501 41.4454 20.7741 41.262 20.8737 41.0879C23.6023 41.681 26.4988 42 29.5 42Z" fill="#001A3F"/>
<path d="M13.411 38.6047L14.3925 38.7961L14.5424 38.0273L13.8319 37.6977L13.411 38.6047ZM9 46.6384L8.64521 45.7035L9.06238 47.6365L9 46.6384ZM20.5 41.6384L21.2894 42.2524L21.2894 42.2524L20.5 41.6384ZM20.8737 41.0879L21.0861 40.1108L20.3699 39.9551L20.0058 40.5912L20.8737 41.0879ZM58 21C58 26.3907 54.9322 31.3667 49.7797 35.0346C44.6293 38.7009 37.4626 41 29.5 41V43C37.8298 43 45.4131 40.598 50.9396 36.6639C56.464 32.7313 60 27.2073 60 21H58ZM29.5 1C37.4626 1 44.6293 3.29905 49.7797 6.96542C54.9322 10.6333 58 15.6093 58 21H60C60 14.7927 56.464 9.26872 50.9396 5.33609C45.4131 1.40196 37.8298 -1 29.5 -1V1ZM1 21C1 15.6093 4.06779 10.6333 9.22028 6.96542C14.3707 3.29905 21.5374 1 29.5 1V-1C21.1702 -1 13.5869 1.40196 8.06042 5.33609C2.53601 9.26872 -1 14.7927 -1 21H1ZM13.8319 37.6977C5.9679 34.0482 1 27.8469 1 21H-1C-1 28.8984 4.70629 35.6676 12.99 39.5118L13.8319 37.6977ZM9.35479 47.5734C11.1454 46.8939 12.2622 45.2631 12.9827 43.6432C13.7137 41.9997 14.1253 40.1668 14.3925 38.7961L12.4295 38.4134C12.1674 39.7579 11.7895 41.4046 11.1553 42.8304C10.5106 44.2799 9.68654 45.3083 8.64521 45.7035L9.35479 47.5734ZM19.7106 41.0245C18.4788 42.6082 16.4762 43.7332 14.365 44.4837C12.2688 45.2289 10.1863 45.5623 8.93762 45.6404L9.06238 47.6365C10.4803 47.5479 12.7479 47.1812 15.035 46.3682C17.3072 45.5604 19.7212 44.2686 21.2894 42.2524L19.7106 41.0245ZM20.0058 40.5912C19.9331 40.7183 19.8366 40.8626 19.7106 41.0245L21.2894 42.2524C21.4637 42.0282 21.6151 41.8058 21.7417 41.5847L20.0058 40.5912ZM29.5 41C26.5695 41 23.7442 40.6885 21.0861 40.1108L20.6614 42.0651C23.4604 42.6735 26.4282 43 29.5 43V41Z" fill="#001A3F" mask="url(#path-3-inside-2_407_1288)"/>
</svg>
